<svg width="16" height="17" viewBox="0 0 16 17" fill="none" xmlns="http://www.w3.org/2000/svg">
<g clip-path="url(#clip0_17473_4000)">
<path d="M12.4714 5.81987C12.7318 5.55953 12.7318 5.13741 12.4714 4.87707C12.2111 4.61672 11.7889 4.61672 11.5286 4.87707L6.66667 9.73899L4.4714 7.54373C4.21106 7.28338 3.78894 7.28338 3.5286 7.54373C3.26825 7.80408 3.26825 8.22619 3.5286 8.48654L6.19526 11.1532C6.45561 11.4136 6.87772 11.4136 7.13807 11.1532L12.4714 5.81987Z" fill="#23856D"/>
<path fill-rule="evenodd" clip-rule="evenodd" d="M8 0.0151367C3.58172 0.0151367 0 3.59686 0 8.01514C0 12.4334 3.58172 16.0151 8 16.0151C12.4183 16.0151 16 12.4334 16 8.01514C16 3.59686 12.4183 0.0151367 8 0.0151367ZM1.33333 8.01514C1.33333 4.33324 4.3181 1.34847 8 1.34847C11.6819 1.34847 14.6667 4.33324 14.6667 8.01514C14.6667 11.697 11.6819 14.6818 8 14.6818C4.3181 14.6818 1.33333 11.697 1.33333 8.01514Z" fill="#23856D"/>
</g>
<defs>
<clipPath id="clip0_17473_4000">
<rect width="16" height="16" fill="white" transform="translate(0 0.0151367)"/>
</clipPath>
</defs>
</svg>
